<svg xmlns="http://www.w3.org/2000/svg" width="760" height="460" viewBox="0 0 760 460" role="img" aria-label="Coverage vs temporal state bytes (sort)">
<style>
  .bg{fill:#ffffff}.fg{fill:#1b1f24}.gridline{stroke:#e3e6ea;stroke-width:1}
  .axis{stroke:#9aa3ad;stroke-width:1.2}
  text{font-family:'DejaVu Sans',system-ui,sans-serif;fill:#1b1f24}
  .ttl{font-size:16px;font-weight:600}.sub{font-size:11px;fill:#6a737d}
  .tick{font-size:10.5px;fill:#6a737d}.lbl{font-size:11.5px}
  .leg{font-size:10.5px}
  @media (prefers-color-scheme: dark){
    .bg{fill:#0f1216}.fg{fill:#e6e9ee}.gridline{stroke:#262b32}
    .axis{stroke:#5b646f}text{fill:#e6e9ee}.sub,.tick{fill:#9aa3ad}
  }
</style>
<rect class="bg" width="760" height="460"/>
<text class="ttl" x="74" y="24">Coverage vs temporal state bytes (sort)</text>
<text class="sub" x="74" y="40">waste price 0.25; state bytes = live fading/history state only</text>
<line class="gridline" x1="74" y1="374.2" x2="550" y2="374.2"/>
<text class="tick" x="66" y="377.7" text-anchor="end">0</text>
<line class="gridline" x1="74" y1="297.8" x2="550" y2="297.8"/>
<text class="tick" x="66" y="301.3" text-anchor="end">5.0</text>
<line class="gridline" x1="74" y1="221.4" x2="550" y2="221.4"/>
<text class="tick" x="66" y="224.9" text-anchor="end">10</text>
<line class="gridline" x1="74" y1="145.0" x2="550" y2="145.0"/>
<text class="tick" x="66" y="148.5" text-anchor="end">15</text>
<line class="gridline" x1="74" y1="68.6" x2="550" y2="68.6"/>
<text class="tick" x="66" y="72.1" text-anchor="end">20</text>
<line class="gridline" x1="119.0" y1="46" x2="119.0" y2="404"/>
<text class="tick" x="119.0" y="421" text-anchor="middle">10</text>
<line class="gridline" x1="219.7" y1="46" x2="219.7" y2="404"/>
<text class="tick" x="219.7" y="421" text-anchor="middle">32</text>
<line class="gridline" x1="320.3" y1="46" x2="320.3" y2="404"/>
<text class="tick" x="320.3" y="421" text-anchor="middle">100</text>
<line class="gridline" x1="421.0" y1="46" x2="421.0" y2="404"/>
<text class="tick" x="421.0" y="421" text-anchor="middle">316</text>
<line class="gridline" x1="521.7" y1="46" x2="521.7" y2="404"/>
<text class="tick" x="521.7" y="421" text-anchor="middle">1,000</text>
<line class="axis" x1="74" y1="404" x2="550" y2="404"/>
<line class="axis" x1="74" y1="46" x2="74" y2="404"/>
<text class="lbl" x="312" y="446" text-anchor="middle">temporal state (bytes, log)</text>
<text class="lbl" transform="translate(18,225) rotate(-90)" text-anchor="middle">coverage (%)</text>
<circle cx="109.8" cy="331.2" r="3.6" fill="#3b6fd4" fill-opacity="0.9"/>
<text class="tick" x="115.8" y="326.2">type+delta</text>
<circle cx="165.4" cy="75.8" r="3.6" fill="#3b6fd4" fill-opacity="0.9"/>
<text class="tick" x="171.4" y="70.8">pc-only</text>
<circle cx="165.4" cy="75.8" r="3.6" fill="#3b6fd4" fill-opacity="0.9"/>
<text class="tick" x="171.4" y="70.8">explicit-1</text>
<circle cx="199.1" cy="110.9" r="3.6" fill="#3b6fd4" fill-opacity="0.9"/>
<text class="tick" x="205.1" y="105.9">explicit-2</text>
<circle cx="242.4" cy="110.9" r="3.6" fill="#3b6fd4" fill-opacity="0.9"/>
<text class="tick" x="248.4" y="105.9">explicit-4</text>
<circle cx="292.8" cy="110.9" r="3.6" fill="#3b6fd4" fill-opacity="0.9"/>
<text class="tick" x="298.8" y="105.9">explicit-8</text>
<circle cx="347.9" cy="93.4" r="3.6" fill="#3b6fd4" fill-opacity="0.9"/>
<text class="tick" x="353.9" y="88.4">explicit-16</text>
<circle cx="242.4" cy="146.1" r="3.6" fill="#3b6fd4" fill-opacity="0.9"/>
<text class="tick" x="248.4" y="141.1">bitty-1x8-tau8</text>
<circle cx="242.4" cy="165.8" r="3.6" fill="#3b6fd4" fill-opacity="0.9"/>
<text class="tick" x="248.4" y="160.8">bitty-1x8-tau32</text>
<circle cx="347.9" cy="102.5" r="3.6" fill="#3b6fd4" fill-opacity="0.9"/>
<text class="tick" x="353.9" y="97.5">bitty-4x8-ternary</text>
<circle cx="99.5" cy="362.1" r="3.6" fill="#3b6fd4" fill-opacity="0.9"/>
<text class="tick" x="105.5" y="357.1">random-matched</text>
<circle cx="347.9" cy="297.0" r="3.6" fill="#3b6fd4" fill-opacity="0.9"/>
<text class="tick" x="353.9" y="292.0">bitty-shuffled-instr</text>
<circle cx="347.9" cy="119.2" r="3.6" fill="#3b6fd4" fill-opacity="0.9"/>
<text class="tick" x="353.9" y="114.2">bitty-no-delta</text>
<circle cx="347.9" cy="102.5" r="3.6" fill="#3b6fd4" fill-opacity="0.9"/>
<text class="tick" x="353.9" y="97.5">bitty-no-type</text>
<circle cx="347.9" cy="102.5" r="3.6" fill="#3b6fd4" fill-opacity="0.9"/>
<text class="tick" x="353.9" y="97.5">bitty-instr-only</text>
<circle cx="347.9" cy="325.2" r="3.6" fill="#3b6fd4" fill-opacity="0.9"/>
<text class="tick" x="353.9" y="320.2">bitty-data-only</text>
<circle cx="347.9" cy="82.9" r="3.6" fill="#3b6fd4" fill-opacity="0.9"/>
<text class="tick" x="353.9" y="77.9">bitty-instr+data</text>
<circle cx="562" cy="48" r="4" fill="#3b6fd4"/>
<text class="leg" x="572" y="52">B (contexts)</text>
<circle cx="199.1" cy="272.6" r="3.6" fill="#d4693b" fill-opacity="0.9"/>
<text class="tick" x="205.1" y="267.6">heads-1</text>
<circle cx="242.4" cy="163.5" r="3.6" fill="#d4693b" fill-opacity="0.9"/>
<text class="tick" x="248.4" y="158.5">heads-2</text>
<circle cx="292.8" cy="117.9" r="3.6" fill="#d4693b" fill-opacity="0.9"/>
<text class="tick" x="298.8" y="112.9">heads-4</text>
<circle cx="347.9" cy="102.5" r="3.6" fill="#d4693b" fill-opacity="0.9"/>
<text class="tick" x="353.9" y="97.5">heads-8</text>
<circle cx="405.5" cy="85.0" r="3.6" fill="#d4693b" fill-opacity="0.9"/>
<text class="tick" x="411.5" y="80.0">heads-16</text>
<circle cx="464.7" cy="85.0" r="3.6" fill="#d4693b" fill-opacity="0.9"/>
<text class="tick" x="470.7" y="80.0">heads-32</text>
<circle cx="524.5" cy="84.1" r="3.6" fill="#d4693b" fill-opacity="0.9"/>
<text class="tick" x="530.5" y="79.1">heads-64</text>
<circle cx="562" cy="63" r="4" fill="#d4693b"/>
<text class="leg" x="572" y="67">C-heads</text>
<circle cx="292.8" cy="81.4" r="3.6" fill="#3ba36b" fill-opacity="0.9"/>
<text class="tick" x="298.8" y="76.4">integer-q8.8-shift</text>
<circle cx="562" cy="78" r="4" fill="#3ba36b"/>
<text class="leg" x="572" y="82">C-int</text>
<circle cx="347.9" cy="93.4" r="3.6" fill="#a03bd4" fill-opacity="0.9"/>
<text class="tick" x="353.9" y="88.4">quant-sign</text>
<circle cx="347.9" cy="102.5" r="3.6" fill="#a03bd4" fill-opacity="0.9"/>
<text class="tick" x="353.9" y="97.5">quant-ternary</text>
<circle cx="347.9" cy="79.9" r="3.6" fill="#a03bd4" fill-opacity="0.9"/>
<text class="tick" x="353.9" y="74.9">quant-2-bit</text>
<circle cx="347.9" cy="83.1" r="3.6" fill="#a03bd4" fill-opacity="0.9"/>
<text class="tick" x="353.9" y="78.1">quant-3-bit</text>
<circle cx="347.9" cy="86.8" r="3.6" fill="#a03bd4" fill-opacity="0.9"/>
<text class="tick" x="353.9" y="81.8">quant-int8</text>
<circle cx="347.9" cy="374.2" r="3.6" fill="#a03bd4" fill-opacity="0.9"/>
<text class="tick" x="353.9" y="369.2">quant-float</text>
<circle cx="562" cy="93" r="4" fill="#a03bd4"/>
<text class="leg" x="572" y="97">C-quant</text>
<circle cx="347.9" cy="110.9" r="3.6" fill="#c9a227" fill-opacity="0.9"/>
<text class="tick" x="353.9" y="105.9">tau{1|2|4|8}</text>
<circle cx="347.9" cy="102.5" r="3.6" fill="#c9a227" fill-opacity="0.9"/>
<text class="tick" x="353.9" y="97.5">tau{2|8|32|128}</text>
<circle cx="347.9" cy="77.1" r="3.6" fill="#c9a227" fill-opacity="0.9"/>
<text class="tick" x="353.9" y="72.1">tau{4|16|64|256}</text>
<circle cx="381.4" cy="81.4" r="3.6" fill="#c9a227" fill-opacity="0.9"/>
<text class="tick" x="387.4" y="76.4">tau{2|4|8|16|32|64}</text>
<circle cx="381.4" cy="81.5" r="3.6" fill="#c9a227" fill-opacity="0.9"/>
<text class="tick" x="387.4" y="76.5">tau{1|4|16|64|256|1024}</text>
<circle cx="562" cy="108" r="4" fill="#c9a227"/>
<text class="leg" x="572" y="112">C-tau</text>
<circle cx="347.9" cy="83.5" r="3.6" fill="#2aa1b3" fill-opacity="0.9"/>
<text class="tick" x="353.9" y="78.5">ternary-thresh-0.05</text>
<circle cx="347.9" cy="83.7" r="3.6" fill="#2aa1b3" fill-opacity="0.9"/>
<text class="tick" x="353.9" y="78.7">ternary-thresh-0.10</text>
<circle cx="347.9" cy="102.5" r="3.6" fill="#2aa1b3" fill-opacity="0.9"/>
<text class="tick" x="353.9" y="97.5">ternary-thresh-0.20</text>
<circle cx="347.9" cy="81.4" r="3.6" fill="#2aa1b3" fill-opacity="0.9"/>
<text class="tick" x="353.9" y="76.4">ternary-thresh-0.35</text>
<circle cx="347.9" cy="79.9" r="3.6" fill="#2aa1b3" fill-opacity="0.9"/>
<text class="tick" x="353.9" y="74.9">ternary-thresh-0.50</text>
<circle cx="562" cy="123" r="4" fill="#2aa1b3"/>
<text class="leg" x="572" y="127">C-thresh</text>
</svg>