<svg xmlns="http://www.w3.org/2000/svg" width="760" height="460" viewBox="0 0 760 460" role="img" aria-label="Learned horizon occupancy vs measured spectrum (python)">
<style>
  .bg{fill:#ffffff}.fg{fill:#1b1f24}.gridline{stroke:#e3e6ea;stroke-width:1}
  .axis{stroke:#9aa3ad;stroke-width:1.2}
  text{font-family:'DejaVu Sans',system-ui,sans-serif;fill:#1b1f24}
  .ttl{font-size:16px;font-weight:600}.sub{font-size:11px;fill:#6a737d}
  .tick{font-size:10.5px;fill:#6a737d}.lbl{font-size:11.5px}
  .leg{font-size:10.5px}
  @media (prefers-color-scheme: dark){
    .bg{fill:#0f1216}.fg{fill:#e6e9ee}.gridline{stroke:#262b32}
    .axis{stroke:#5b646f}text{fill:#e6e9ee}.sub,.tick{fill:#9aa3ad}
  }
</style>
<rect class="bg" width="760" height="460"/>
<text class="ttl" x="74" y="24">Learned horizon occupancy vs measured spectrum (python)</text>
<text class="sub" x="74" y="40">share of real misses covered by each arm, against the learner-free ceiling at that lag</text>
<line class="gridline" x1="74" y1="379.3" x2="550" y2="379.3"/>
<text class="tick" x="66" y="382.8" text-anchor="end">0</text>
<line class="gridline" x1="74" y1="302.5" x2="550" y2="302.5"/>
<text class="tick" x="66" y="306.0" text-anchor="end">5.0</text>
<line class="gridline" x1="74" y1="225.6" x2="550" y2="225.6"/>
<text class="tick" x="66" y="229.1" text-anchor="end">10</text>
<line class="gridline" x1="74" y1="148.7" x2="550" y2="148.7"/>
<text class="tick" x="66" y="152.2" text-anchor="end">15</text>
<line class="gridline" x1="74" y1="71.9" x2="550" y2="71.9"/>
<text class="tick" x="66" y="75.4" text-anchor="end">20</text>
<line class="gridline" x1="85.8" y1="46" x2="85.8" y2="404"/>
<text class="tick" x="85.8" y="421" text-anchor="middle">0</text>
<line class="gridline" x1="222.9" y1="46" x2="222.9" y2="404"/>
<text class="tick" x="222.9" y="421" text-anchor="middle">10</text>
<line class="gridline" x1="360.0" y1="46" x2="360.0" y2="404"/>
<text class="tick" x="360.0" y="421" text-anchor="middle">20</text>
<line class="gridline" x1="497.1" y1="46" x2="497.1" y2="404"/>
<text class="tick" x="497.1" y="421" text-anchor="middle">30</text>
<line class="axis" x1="74" y1="404" x2="550" y2="404"/>
<line class="axis" x1="74" y1="46" x2="74" y2="404"/>
<text class="lbl" x="312" y="446" text-anchor="middle">horizon h</text>
<text class="lbl" transform="translate(18,225) rotate(-90)" text-anchor="middle">percent</text>
<path d="M99.5,244.2 L99.5,244.2 L113.2,140.1 L113.2,140.1 L126.9,317.6 L126.9,317.6 L140.6,255.8 L140.6,255.8 L154.3,296.3 L154.3,296.3 L168.0,162.8 L168.0,162.8 L181.8,262.8 L181.8,262.8 L195.5,354.0 L195.5,354.0 L209.2,350.8 L209.2,350.8 L222.9,321.2 L222.9,321.2 L236.6,338.3 L236.6,338.3 L250.3,339.4 L250.3,339.4 L264.0,357.1 L264.0,357.1 L277.7,365.3 L277.7,365.3 L291.4,356.1 L291.4,356.1 L305.1,319.9 L305.1,319.9 L318.9,362.8 L318.9,362.8 L332.6,364.3 L332.6,364.3 L346.3,371.4 L346.3,371.4 L360.0,361.6 L360.0,361.6 L373.7,367.8 L373.7,367.8 L387.4,362.9 L387.4,362.9 L401.1,371.3 L401.1,371.3 L414.8,350.1 L414.8,350.1 L428.5,358.3 L428.5,358.3 L442.2,369.3 L442.2,369.3 L456.0,369.1 L456.0,369.1 L469.7,364.3 L469.7,364.3 L483.4,371.7 L483.4,371.7 L497.1,328.3 L497.1,328.3 L510.8,374.2 L510.8,374.2 L524.5,371.9 L524.5,371.9" fill="none" stroke="#3b6fd4" stroke-width="2" stroke-linejoin="round"/>
<circle cx="99.5" cy="244.2" r="3.6" fill="#3b6fd4" fill-opacity="0.9"/>
<circle cx="99.5" cy="244.2" r="3.6" fill="#3b6fd4" fill-opacity="0.9"/>
<circle cx="113.2" cy="140.1" r="3.6" fill="#3b6fd4" fill-opacity="0.9"/>
<circle cx="113.2" cy="140.1" r="3.6" fill="#3b6fd4" fill-opacity="0.9"/>
<circle cx="126.9" cy="317.6" r="3.6" fill="#3b6fd4" fill-opacity="0.9"/>
<circle cx="126.9" cy="317.6" r="3.6" fill="#3b6fd4" fill-opacity="0.9"/>
<circle cx="140.6" cy="255.8" r="3.6" fill="#3b6fd4" fill-opacity="0.9"/>
<circle cx="140.6" cy="255.8" r="3.6" fill="#3b6fd4" fill-opacity="0.9"/>
<circle cx="154.3" cy="296.3" r="3.6" fill="#3b6fd4" fill-opacity="0.9"/>
<circle cx="154.3" cy="296.3" r="3.6" fill="#3b6fd4" fill-opacity="0.9"/>
<circle cx="168.0" cy="162.8" r="3.6" fill="#3b6fd4" fill-opacity="0.9"/>
<circle cx="168.0" cy="162.8" r="3.6" fill="#3b6fd4" fill-opacity="0.9"/>
<circle cx="181.8" cy="262.8" r="3.6" fill="#3b6fd4" fill-opacity="0.9"/>
<circle cx="181.8" cy="262.8" r="3.6" fill="#3b6fd4" fill-opacity="0.9"/>
<circle cx="195.5" cy="354.0" r="3.6" fill="#3b6fd4" fill-opacity="0.9"/>
<circle cx="195.5" cy="354.0" r="3.6" fill="#3b6fd4" fill-opacity="0.9"/>
<circle cx="209.2" cy="350.8" r="3.6" fill="#3b6fd4" fill-opacity="0.9"/>
<circle cx="209.2" cy="350.8" r="3.6" fill="#3b6fd4" fill-opacity="0.9"/>
<circle cx="222.9" cy="321.2" r="3.6" fill="#3b6fd4" fill-opacity="0.9"/>
<circle cx="222.9" cy="321.2" r="3.6" fill="#3b6fd4" fill-opacity="0.9"/>
<circle cx="236.6" cy="338.3" r="3.6" fill="#3b6fd4" fill-opacity="0.9"/>
<circle cx="236.6" cy="338.3" r="3.6" fill="#3b6fd4" fill-opacity="0.9"/>
<circle cx="250.3" cy="339.4" r="3.6" fill="#3b6fd4" fill-opacity="0.9"/>
<circle cx="250.3" cy="339.4" r="3.6" fill="#3b6fd4" fill-opacity="0.9"/>
<circle cx="264.0" cy="357.1" r="3.6" fill="#3b6fd4" fill-opacity="0.9"/>
<circle cx="264.0" cy="357.1" r="3.6" fill="#3b6fd4" fill-opacity="0.9"/>
<circle cx="277.7" cy="365.3" r="3.6" fill="#3b6fd4" fill-opacity="0.9"/>
<circle cx="277.7" cy="365.3" r="3.6" fill="#3b6fd4" fill-opacity="0.9"/>
<circle cx="291.4" cy="356.1" r="3.6" fill="#3b6fd4" fill-opacity="0.9"/>
<circle cx="291.4" cy="356.1" r="3.6" fill="#3b6fd4" fill-opacity="0.9"/>
<circle cx="305.1" cy="319.9" r="3.6" fill="#3b6fd4" fill-opacity="0.9"/>
<circle cx="305.1" cy="319.9" r="3.6" fill="#3b6fd4" fill-opacity="0.9"/>
<circle cx="318.9" cy="362.8" r="3.6" fill="#3b6fd4" fill-opacity="0.9"/>
<circle cx="318.9" cy="362.8" r="3.6" fill="#3b6fd4" fill-opacity="0.9"/>
<circle cx="332.6" cy="364.3" r="3.6" fill="#3b6fd4" fill-opacity="0.9"/>
<circle cx="332.6" cy="364.3" r="3.6" fill="#3b6fd4" fill-opacity="0.9"/>
<circle cx="346.3" cy="371.4" r="3.6" fill="#3b6fd4" fill-opacity="0.9"/>
<circle cx="346.3" cy="371.4" r="3.6" fill="#3b6fd4" fill-opacity="0.9"/>
<circle cx="360.0" cy="361.6" r="3.6" fill="#3b6fd4" fill-opacity="0.9"/>
<circle cx="360.0" cy="361.6" r="3.6" fill="#3b6fd4" fill-opacity="0.9"/>
<circle cx="373.7" cy="367.8" r="3.6" fill="#3b6fd4" fill-opacity="0.9"/>
<circle cx="373.7" cy="367.8" r="3.6" fill="#3b6fd4" fill-opacity="0.9"/>
<circle cx="387.4" cy="362.9" r="3.6" fill="#3b6fd4" fill-opacity="0.9"/>
<circle cx="387.4" cy="362.9" r="3.6" fill="#3b6fd4" fill-opacity="0.9"/>
<circle cx="401.1" cy="371.3" r="3.6" fill="#3b6fd4" fill-opacity="0.9"/>
<circle cx="401.1" cy="371.3" r="3.6" fill="#3b6fd4" fill-opacity="0.9"/>
<circle cx="414.8" cy="350.1" r="3.6" fill="#3b6fd4" fill-opacity="0.9"/>
<circle cx="414.8" cy="350.1" r="3.6" fill="#3b6fd4" fill-opacity="0.9"/>
<circle cx="428.5" cy="358.3" r="3.6" fill="#3b6fd4" fill-opacity="0.9"/>
<circle cx="428.5" cy="358.3" r="3.6" fill="#3b6fd4" fill-opacity="0.9"/>
<circle cx="442.2" cy="369.3" r="3.6" fill="#3b6fd4" fill-opacity="0.9"/>
<circle cx="442.2" cy="369.3" r="3.6" fill="#3b6fd4" fill-opacity="0.9"/>
<circle cx="456.0" cy="369.1" r="3.6" fill="#3b6fd4" fill-opacity="0.9"/>
<circle cx="456.0" cy="369.1" r="3.6" fill="#3b6fd4" fill-opacity="0.9"/>
<circle cx="469.7" cy="364.3" r="3.6" fill="#3b6fd4" fill-opacity="0.9"/>
<circle cx="469.7" cy="364.3" r="3.6" fill="#3b6fd4" fill-opacity="0.9"/>
<circle cx="483.4" cy="371.7" r="3.6" fill="#3b6fd4" fill-opacity="0.9"/>
<circle cx="483.4" cy="371.7" r="3.6" fill="#3b6fd4" fill-opacity="0.9"/>
<circle cx="497.1" cy="328.3" r="3.6" fill="#3b6fd4" fill-opacity="0.9"/>
<circle cx="497.1" cy="328.3" r="3.6" fill="#3b6fd4" fill-opacity="0.9"/>
<circle cx="510.8" cy="374.2" r="3.6" fill="#3b6fd4" fill-opacity="0.9"/>
<circle cx="510.8" cy="374.2" r="3.6" fill="#3b6fd4" fill-opacity="0.9"/>
<circle cx="524.5" cy="371.9" r="3.6" fill="#3b6fd4" fill-opacity="0.9"/>
<circle cx="524.5" cy="371.9" r="3.6" fill="#3b6fd4" fill-opacity="0.9"/>
<circle cx="562" cy="48" r="4" fill="#3b6fd4"/>
<text class="leg" x="572" y="52">learned occupancy (share of real misses covered)</text>
<path d="M99.5,75.8 L113.2,203.9 L126.9,169.3 L140.6,247.0 L154.3,198.6 L168.0,185.2 L181.8,267.0 L195.5,336.2 L209.2,262.5 L222.9,319.2 L236.6,254.0 L250.3,314.8 L264.0,314.4 L277.7,337.8 L291.4,301.8 L305.1,341.2 L318.9,317.2 L332.6,340.4 L346.3,319.3 L360.0,347.7 L373.7,311.3 L387.4,344.8 L401.1,319.5 L414.8,348.1 L428.5,320.2 L442.2,356.0 L456.0,322.4 L469.7,353.9 L483.4,322.4 L497.1,351.4 L510.8,321.1 L524.5,355.5" fill="none" stroke="#d4693b" stroke-width="2" stroke-linejoin="round"/>
<circle cx="99.5" cy="75.8" r="3.6" fill="#d4693b" fill-opacity="0.9"/>
<circle cx="113.2" cy="203.9" r="3.6" fill="#d4693b" fill-opacity="0.9"/>
<circle cx="126.9" cy="169.3" r="3.6" fill="#d4693b" fill-opacity="0.9"/>
<circle cx="140.6" cy="247.0" r="3.6" fill="#d4693b" fill-opacity="0.9"/>
<circle cx="154.3" cy="198.6" r="3.6" fill="#d4693b" fill-opacity="0.9"/>
<circle cx="168.0" cy="185.2" r="3.6" fill="#d4693b" fill-opacity="0.9"/>
<circle cx="181.8" cy="267.0" r="3.6" fill="#d4693b" fill-opacity="0.9"/>
<circle cx="195.5" cy="336.2" r="3.6" fill="#d4693b" fill-opacity="0.9"/>
<circle cx="209.2" cy="262.5" r="3.6" fill="#d4693b" fill-opacity="0.9"/>
<circle cx="222.9" cy="319.2" r="3.6" fill="#d4693b" fill-opacity="0.9"/>
<circle cx="236.6" cy="254.0" r="3.6" fill="#d4693b" fill-opacity="0.9"/>
<circle cx="250.3" cy="314.8" r="3.6" fill="#d4693b" fill-opacity="0.9"/>
<circle cx="264.0" cy="314.4" r="3.6" fill="#d4693b" fill-opacity="0.9"/>
<circle cx="277.7" cy="337.8" r="3.6" fill="#d4693b" fill-opacity="0.9"/>
<circle cx="291.4" cy="301.8" r="3.6" fill="#d4693b" fill-opacity="0.9"/>
<circle cx="305.1" cy="341.2" r="3.6" fill="#d4693b" fill-opacity="0.9"/>
<circle cx="318.9" cy="317.2" r="3.6" fill="#d4693b" fill-opacity="0.9"/>
<circle cx="332.6" cy="340.4" r="3.6" fill="#d4693b" fill-opacity="0.9"/>
<circle cx="346.3" cy="319.3" r="3.6" fill="#d4693b" fill-opacity="0.9"/>
<circle cx="360.0" cy="347.7" r="3.6" fill="#d4693b" fill-opacity="0.9"/>
<circle cx="373.7" cy="311.3" r="3.6" fill="#d4693b" fill-opacity="0.9"/>
<circle cx="387.4" cy="344.8" r="3.6" fill="#d4693b" fill-opacity="0.9"/>
<circle cx="401.1" cy="319.5" r="3.6" fill="#d4693b" fill-opacity="0.9"/>
<circle cx="414.8" cy="348.1" r="3.6" fill="#d4693b" fill-opacity="0.9"/>
<circle cx="428.5" cy="320.2" r="3.6" fill="#d4693b" fill-opacity="0.9"/>
<circle cx="442.2" cy="356.0" r="3.6" fill="#d4693b" fill-opacity="0.9"/>
<circle cx="456.0" cy="322.4" r="3.6" fill="#d4693b" fill-opacity="0.9"/>
<circle cx="469.7" cy="353.9" r="3.6" fill="#d4693b" fill-opacity="0.9"/>
<circle cx="483.4" cy="322.4" r="3.6" fill="#d4693b" fill-opacity="0.9"/>
<circle cx="497.1" cy="351.4" r="3.6" fill="#d4693b" fill-opacity="0.9"/>
<circle cx="510.8" cy="321.1" r="3.6" fill="#d4693b" fill-opacity="0.9"/>
<circle cx="524.5" cy="355.5" r="3.6" fill="#d4693b" fill-opacity="0.9"/>
<circle cx="562" cy="63" r="4" fill="#d4693b"/>
<text class="leg" x="572" y="67">model-free spectrum (top-1 Δ≠0 landing on a miss)</text>
</svg>