<svg xmlns="http://www.w3.org/2000/svg" width="760" height="460" viewBox="0 0 760 460" role="img" aria-label="Learned horizon occupancy vs measured spectrum (awkhash)">
<style>
  .bg{fill:#ffffff}.fg{fill:#1b1f24}.gridline{stroke:#e3e6ea;stroke-width:1}
  .axis{stroke:#9aa3ad;stroke-width:1.2}
  text{font-family:'DejaVu Sans',system-ui,sans-serif;fill:#1b1f24}
  .ttl{font-size:16px;font-weight:600}.sub{font-size:11px;fill:#6a737d}
  .tick{font-size:10.5px;fill:#6a737d}.lbl{font-size:11.5px}
  .leg{font-size:10.5px}
  @media (prefers-color-scheme: dark){
    .bg{fill:#0f1216}.fg{fill:#e6e9ee}.gridline{stroke:#262b32}
    .axis{stroke:#5b646f}text{fill:#e6e9ee}.sub,.tick{fill:#9aa3ad}
  }
</style>
<rect class="bg" width="760" height="460"/>
<text class="ttl" x="74" y="24">Learned horizon occupancy vs measured spectrum (awkhash)</text>
<text class="sub" x="74" y="40">share of real misses covered by each arm, against the learner-free ceiling at that lag</text>
<line class="gridline" x1="74" y1="374.2" x2="550" y2="374.2"/>
<text class="tick" x="66" y="377.7" text-anchor="end">0</text>
<line class="gridline" x1="74" y1="308.6" x2="550" y2="308.6"/>
<text class="tick" x="66" y="312.1" text-anchor="end">5.0</text>
<line class="gridline" x1="74" y1="243.0" x2="550" y2="243.0"/>
<text class="tick" x="66" y="246.5" text-anchor="end">10</text>
<line class="gridline" x1="74" y1="177.4" x2="550" y2="177.4"/>
<text class="tick" x="66" y="180.9" text-anchor="end">15</text>
<line class="gridline" x1="74" y1="111.8" x2="550" y2="111.8"/>
<text class="tick" x="66" y="115.3" text-anchor="end">20</text>
<line class="gridline" x1="74" y1="46.2" x2="550" y2="46.2"/>
<text class="tick" x="66" y="49.7" text-anchor="end">25</text>
<line class="gridline" x1="85.8" y1="46" x2="85.8" y2="404"/>
<text class="tick" x="85.8" y="421" text-anchor="middle">0</text>
<line class="gridline" x1="222.9" y1="46" x2="222.9" y2="404"/>
<text class="tick" x="222.9" y="421" text-anchor="middle">10</text>
<line class="gridline" x1="360.0" y1="46" x2="360.0" y2="404"/>
<text class="tick" x="360.0" y="421" text-anchor="middle">20</text>
<line class="gridline" x1="497.1" y1="46" x2="497.1" y2="404"/>
<text class="tick" x="497.1" y="421" text-anchor="middle">30</text>
<line class="axis" x1="74" y1="404" x2="550" y2="404"/>
<line class="axis" x1="74" y1="46" x2="74" y2="404"/>
<text class="lbl" x="312" y="446" text-anchor="middle">horizon h</text>
<text class="lbl" transform="translate(18,225) rotate(-90)" text-anchor="middle">percent</text>
<path d="M99.5,234.4 L99.5,234.4 L113.2,270.7 L113.2,270.7 L126.9,259.7 L126.9,259.7 L140.6,253.1 L140.6,253.1 L154.3,257.5 L154.3,257.5 L168.0,353.8 L168.0,353.8 L181.8,276.2 L181.8,276.2 L195.5,361.0 L195.5,361.0 L209.2,323.0 L209.2,323.0 L222.9,75.8 L222.9,75.8 L236.6,351.0 L236.6,351.0 L250.3,359.9 L250.3,359.9 L264.0,218.9 L264.0,218.9 L277.7,369.2 L277.7,369.2 L291.4,372.0 L291.4,372.0 L305.1,358.8 L305.1,358.8 L318.9,373.6 L318.9,373.6 L332.6,373.1 L332.6,373.1 L346.3,373.1 L346.3,373.1 L360.0,372.0 L360.0,372.0 L373.7,372.0 L373.7,372.0 L387.4,371.4 L387.4,371.4 L401.1,373.6 L401.1,373.6 L414.8,373.6 L414.8,373.6 L428.5,372.5 L428.5,372.5 L442.2,374.2 L442.2,374.2 L456.0,373.1 L456.0,373.1 L469.7,372.0 L469.7,372.0 L483.4,373.1 L483.4,373.1 L497.1,372.0 L497.1,372.0 L510.8,374.2 L510.8,374.2 L524.5,373.6 L524.5,373.6" fill="none" stroke="#3b6fd4" stroke-width="2" stroke-linejoin="round"/>
<circle cx="99.5" cy="234.4" r="3.6" fill="#3b6fd4" fill-opacity="0.9"/>
<circle cx="99.5" cy="234.4" r="3.6" fill="#3b6fd4" fill-opacity="0.9"/>
<circle cx="113.2" cy="270.7" r="3.6" fill="#3b6fd4" fill-opacity="0.9"/>
<circle cx="113.2" cy="270.7" r="3.6" fill="#3b6fd4" fill-opacity="0.9"/>
<circle cx="126.9" cy="259.7" r="3.6" fill="#3b6fd4" fill-opacity="0.9"/>
<circle cx="126.9" cy="259.7" r="3.6" fill="#3b6fd4" fill-opacity="0.9"/>
<circle cx="140.6" cy="253.1" r="3.6" fill="#3b6fd4" fill-opacity="0.9"/>
<circle cx="140.6" cy="253.1" r="3.6" fill="#3b6fd4" fill-opacity="0.9"/>
<circle cx="154.3" cy="257.5" r="3.6" fill="#3b6fd4" fill-opacity="0.9"/>
<circle cx="154.3" cy="257.5" r="3.6" fill="#3b6fd4" fill-opacity="0.9"/>
<circle cx="168.0" cy="353.8" r="3.6" fill="#3b6fd4" fill-opacity="0.9"/>
<circle cx="168.0" cy="353.8" r="3.6" fill="#3b6fd4" fill-opacity="0.9"/>
<circle cx="181.8" cy="276.2" r="3.6" fill="#3b6fd4" fill-opacity="0.9"/>
<circle cx="181.8" cy="276.2" r="3.6" fill="#3b6fd4" fill-opacity="0.9"/>
<circle cx="195.5" cy="361.0" r="3.6" fill="#3b6fd4" fill-opacity="0.9"/>
<circle cx="195.5" cy="361.0" r="3.6" fill="#3b6fd4" fill-opacity="0.9"/>
<circle cx="209.2" cy="323.0" r="3.6" fill="#3b6fd4" fill-opacity="0.9"/>
<circle cx="209.2" cy="323.0" r="3.6" fill="#3b6fd4" fill-opacity="0.9"/>
<circle cx="222.9" cy="75.8" r="3.6" fill="#3b6fd4" fill-opacity="0.9"/>
<circle cx="222.9" cy="75.8" r="3.6" fill="#3b6fd4" fill-opacity="0.9"/>
<circle cx="236.6" cy="351.0" r="3.6" fill="#3b6fd4" fill-opacity="0.9"/>
<circle cx="236.6" cy="351.0" r="3.6" fill="#3b6fd4" fill-opacity="0.9"/>
<circle cx="250.3" cy="359.9" r="3.6" fill="#3b6fd4" fill-opacity="0.9"/>
<circle cx="250.3" cy="359.9" r="3.6" fill="#3b6fd4" fill-opacity="0.9"/>
<circle cx="264.0" cy="218.9" r="3.6" fill="#3b6fd4" fill-opacity="0.9"/>
<circle cx="264.0" cy="218.9" r="3.6" fill="#3b6fd4" fill-opacity="0.9"/>
<circle cx="277.7" cy="369.2" r="3.6" fill="#3b6fd4" fill-opacity="0.9"/>
<circle cx="277.7" cy="369.2" r="3.6" fill="#3b6fd4" fill-opacity="0.9"/>
<circle cx="291.4" cy="372.0" r="3.6" fill="#3b6fd4" fill-opacity="0.9"/>
<circle cx="291.4" cy="372.0" r="3.6" fill="#3b6fd4" fill-opacity="0.9"/>
<circle cx="305.1" cy="358.8" r="3.6" fill="#3b6fd4" fill-opacity="0.9"/>
<circle cx="305.1" cy="358.8" r="3.6" fill="#3b6fd4" fill-opacity="0.9"/>
<circle cx="318.9" cy="373.6" r="3.6" fill="#3b6fd4" fill-opacity="0.9"/>
<circle cx="318.9" cy="373.6" r="3.6" fill="#3b6fd4" fill-opacity="0.9"/>
<circle cx="332.6" cy="373.1" r="3.6" fill="#3b6fd4" fill-opacity="0.9"/>
<circle cx="332.6" cy="373.1" r="3.6" fill="#3b6fd4" fill-opacity="0.9"/>
<circle cx="346.3" cy="373.1" r="3.6" fill="#3b6fd4" fill-opacity="0.9"/>
<circle cx="346.3" cy="373.1" r="3.6" fill="#3b6fd4" fill-opacity="0.9"/>
<circle cx="360.0" cy="372.0" r="3.6" fill="#3b6fd4" fill-opacity="0.9"/>
<circle cx="360.0" cy="372.0" r="3.6" fill="#3b6fd4" fill-opacity="0.9"/>
<circle cx="373.7" cy="372.0" r="3.6" fill="#3b6fd4" fill-opacity="0.9"/>
<circle cx="373.7" cy="372.0" r="3.6" fill="#3b6fd4" fill-opacity="0.9"/>
<circle cx="387.4" cy="371.4" r="3.6" fill="#3b6fd4" fill-opacity="0.9"/>
<circle cx="387.4" cy="371.4" r="3.6" fill="#3b6fd4" fill-opacity="0.9"/>
<circle cx="401.1" cy="373.6" r="3.6" fill="#3b6fd4" fill-opacity="0.9"/>
<circle cx="401.1" cy="373.6" r="3.6" fill="#3b6fd4" fill-opacity="0.9"/>
<circle cx="414.8" cy="373.6" r="3.6" fill="#3b6fd4" fill-opacity="0.9"/>
<circle cx="414.8" cy="373.6" r="3.6" fill="#3b6fd4" fill-opacity="0.9"/>
<circle cx="428.5" cy="372.5" r="3.6" fill="#3b6fd4" fill-opacity="0.9"/>
<circle cx="428.5" cy="372.5" r="3.6" fill="#3b6fd4" fill-opacity="0.9"/>
<circle cx="442.2" cy="374.2" r="3.6" fill="#3b6fd4" fill-opacity="0.9"/>
<circle cx="442.2" cy="374.2" r="3.6" fill="#3b6fd4" fill-opacity="0.9"/>
<circle cx="456.0" cy="373.1" r="3.6" fill="#3b6fd4" fill-opacity="0.9"/>
<circle cx="456.0" cy="373.1" r="3.6" fill="#3b6fd4" fill-opacity="0.9"/>
<circle cx="469.7" cy="372.0" r="3.6" fill="#3b6fd4" fill-opacity="0.9"/>
<circle cx="469.7" cy="372.0" r="3.6" fill="#3b6fd4" fill-opacity="0.9"/>
<circle cx="483.4" cy="373.1" r="3.6" fill="#3b6fd4" fill-opacity="0.9"/>
<circle cx="483.4" cy="373.1" r="3.6" fill="#3b6fd4" fill-opacity="0.9"/>
<circle cx="497.1" cy="372.0" r="3.6" fill="#3b6fd4" fill-opacity="0.9"/>
<circle cx="497.1" cy="372.0" r="3.6" fill="#3b6fd4" fill-opacity="0.9"/>
<circle cx="510.8" cy="374.2" r="3.6" fill="#3b6fd4" fill-opacity="0.9"/>
<circle cx="510.8" cy="374.2" r="3.6" fill="#3b6fd4" fill-opacity="0.9"/>
<circle cx="524.5" cy="373.6" r="3.6" fill="#3b6fd4" fill-opacity="0.9"/>
<circle cx="524.5" cy="373.6" r="3.6" fill="#3b6fd4" fill-opacity="0.9"/>
<circle cx="562" cy="48" r="4" fill="#3b6fd4"/>
<text class="leg" x="572" y="52">learned occupancy (share of real misses covered)</text>
<path d="M99.5,145.3 L113.2,349.9 L126.9,372.5 L140.6,363.3 L154.3,364.3 L168.0,371.1 L181.8,368.5 L195.5,371.3 L209.2,373.7 L222.9,374.1 L236.6,374.2 L250.3,374.0 L264.0,368.1 L277.7,368.7 L291.4,373.0 L305.1,373.8 L318.9,373.0 L332.6,374.0 L346.3,374.2 L360.0,373.9 L373.7,373.3 L387.4,374.0 L401.1,374.2 L414.8,374.1 L428.5,374.2 L442.2,374.1 L456.0,374.2 L469.7,374.1 L483.4,374.2 L497.1,374.1 L510.8,373.1 L524.5,373.9" fill="none" stroke="#d4693b" stroke-width="2" stroke-linejoin="round"/>
<circle cx="99.5" cy="145.3" r="3.6" fill="#d4693b" fill-opacity="0.9"/>
<circle cx="113.2" cy="349.9" r="3.6" fill="#d4693b" fill-opacity="0.9"/>
<circle cx="126.9" cy="372.5" r="3.6" fill="#d4693b" fill-opacity="0.9"/>
<circle cx="140.6" cy="363.3" r="3.6" fill="#d4693b" fill-opacity="0.9"/>
<circle cx="154.3" cy="364.3" r="3.6" fill="#d4693b" fill-opacity="0.9"/>
<circle cx="168.0" cy="371.1" r="3.6" fill="#d4693b" fill-opacity="0.9"/>
<circle cx="181.8" cy="368.5" r="3.6" fill="#d4693b" fill-opacity="0.9"/>
<circle cx="195.5" cy="371.3" r="3.6" fill="#d4693b" fill-opacity="0.9"/>
<circle cx="209.2" cy="373.7" r="3.6" fill="#d4693b" fill-opacity="0.9"/>
<circle cx="222.9" cy="374.1" r="3.6" fill="#d4693b" fill-opacity="0.9"/>
<circle cx="236.6" cy="374.2" r="3.6" fill="#d4693b" fill-opacity="0.9"/>
<circle cx="250.3" cy="374.0" r="3.6" fill="#d4693b" fill-opacity="0.9"/>
<circle cx="264.0" cy="368.1" r="3.6" fill="#d4693b" fill-opacity="0.9"/>
<circle cx="277.7" cy="368.7" r="3.6" fill="#d4693b" fill-opacity="0.9"/>
<circle cx="291.4" cy="373.0" r="3.6" fill="#d4693b" fill-opacity="0.9"/>
<circle cx="305.1" cy="373.8" r="3.6" fill="#d4693b" fill-opacity="0.9"/>
<circle cx="318.9" cy="373.0" r="3.6" fill="#d4693b" fill-opacity="0.9"/>
<circle cx="332.6" cy="374.0" r="3.6" fill="#d4693b" fill-opacity="0.9"/>
<circle cx="346.3" cy="374.2" r="3.6" fill="#d4693b" fill-opacity="0.9"/>
<circle cx="360.0" cy="373.9" r="3.6" fill="#d4693b" fill-opacity="0.9"/>
<circle cx="373.7" cy="373.3" r="3.6" fill="#d4693b" fill-opacity="0.9"/>
<circle cx="387.4" cy="374.0" r="3.6" fill="#d4693b" fill-opacity="0.9"/>
<circle cx="401.1" cy="374.2" r="3.6" fill="#d4693b" fill-opacity="0.9"/>
<circle cx="414.8" cy="374.1" r="3.6" fill="#d4693b" fill-opacity="0.9"/>
<circle cx="428.5" cy="374.2" r="3.6" fill="#d4693b" fill-opacity="0.9"/>
<circle cx="442.2" cy="374.1" r="3.6" fill="#d4693b" fill-opacity="0.9"/>
<circle cx="456.0" cy="374.2" r="3.6" fill="#d4693b" fill-opacity="0.9"/>
<circle cx="469.7" cy="374.1" r="3.6" fill="#d4693b" fill-opacity="0.9"/>
<circle cx="483.4" cy="374.2" r="3.6" fill="#d4693b" fill-opacity="0.9"/>
<circle cx="497.1" cy="374.1" r="3.6" fill="#d4693b" fill-opacity="0.9"/>
<circle cx="510.8" cy="373.1" r="3.6" fill="#d4693b" fill-opacity="0.9"/>
<circle cx="524.5" cy="373.9" r="3.6" fill="#d4693b" fill-opacity="0.9"/>
<circle cx="562" cy="63" r="4" fill="#d4693b"/>
<text class="leg" x="572" y="67">model-free spectrum (top-1 Δ≠0 landing on a miss)</text>
</svg>