<svg xmlns="http://www.w3.org/2000/svg" width="760" height="460" viewBox="0 0 760 460" role="img" aria-label="G66 — two-stage selection against its four controls (all traces)">
<style>
  .bg{fill:#ffffff}.fg{fill:#1b1f24}.gridline{stroke:#e3e6ea;stroke-width:1}
  .axis{stroke:#9aa3ad;stroke-width:1.2}
  text{font-family:'DejaVu Sans',system-ui,sans-serif;fill:#1b1f24}
  .ttl{font-size:16px;font-weight:600}.sub{font-size:11px;fill:#6a737d}
  .tick{font-size:10.5px;fill:#6a737d}.lbl{font-size:11.5px}
  .leg{font-size:10.5px}
  @media (prefers-color-scheme: dark){
    .bg{fill:#0f1216}.fg{fill:#e6e9ee}.gridline{stroke:#262b32}
    .axis{stroke:#5b646f}text{fill:#e6e9ee}.sub,.tick{fill:#9aa3ad}
  }
</style>
<rect class="bg" width="760" height="460"/>
<text class="ttl" x="74" y="24">G66 — two-stage selection against its four controls (all traces)</text>
<text class="sub" x="74" y="40">price swept 0.05..4; up and to the left is better</text>
<line class="gridline" x1="74" y1="409.9" x2="550" y2="409.9"/>
<text class="tick" x="66" y="413.4" text-anchor="end">-1,000</text>
<line class="gridline" x1="74" y1="343.7" x2="550" y2="343.7"/>
<text class="tick" x="66" y="347.2" text-anchor="end">-800</text>
<line class="gridline" x1="74" y1="277.5" x2="550" y2="277.5"/>
<text class="tick" x="66" y="281.0" text-anchor="end">-600</text>
<line class="gridline" x1="74" y1="211.4" x2="550" y2="211.4"/>
<text class="tick" x="66" y="214.9" text-anchor="end">-400</text>
<line class="gridline" x1="74" y1="145.2" x2="550" y2="145.2"/>
<text class="tick" x="66" y="148.7" text-anchor="end">-200</text>
<line class="gridline" x1="74" y1="79.0" x2="550" y2="79.0"/>
<text class="tick" x="66" y="82.5" text-anchor="end">0</text>
<line class="gridline" x1="22.6" y1="46" x2="22.6" y2="404"/>
<text class="tick" x="22.6" y="421" text-anchor="middle">32</text>
<line class="gridline" x1="162.3" y1="46" x2="162.3" y2="404"/>
<text class="tick" x="162.3" y="421" text-anchor="middle">100</text>
<line class="gridline" x1="302.1" y1="46" x2="302.1" y2="404"/>
<text class="tick" x="302.1" y="421" text-anchor="middle">316</text>
<line class="gridline" x1="441.8" y1="46" x2="441.8" y2="404"/>
<text class="tick" x="441.8" y="421" text-anchor="middle">1,000</text>
<line class="gridline" x1="581.5" y1="46" x2="581.5" y2="404"/>
<text class="tick" x="581.5" y="421" text-anchor="middle">3,162</text>
<line class="axis" x1="74" y1="404" x2="550" y2="404"/>
<line class="axis" x1="74" y1="46" x2="74" y2="404"/>
<text class="lbl" x="312" y="446" text-anchor="middle">hot-path cost (ns / reference, log)</text>
<text class="lbl" transform="translate(18,225) rotate(-90)" text-anchor="middle">miss-filtered net benefit per 1K data refs</text>
<circle cx="180.1" cy="79.3" r="3.6" fill="#3b6fd4" fill-opacity="0.9"/>
<circle cx="171.4" cy="79.3" r="3.6" fill="#3b6fd4" fill-opacity="0.9"/>
<circle cx="173.8" cy="79.3" r="3.6" fill="#3b6fd4" fill-opacity="0.9"/>
<circle cx="174.6" cy="79.3" r="3.6" fill="#3b6fd4" fill-opacity="0.9"/>
<circle cx="177.4" cy="79.3" r="3.6" fill="#3b6fd4" fill-opacity="0.9"/>
<circle cx="175.8" cy="79.3" r="3.6" fill="#3b6fd4" fill-opacity="0.9"/>
<circle cx="177.6" cy="79.3" r="3.6" fill="#3b6fd4" fill-opacity="0.9"/>
<circle cx="167.7" cy="79.6" r="3.6" fill="#3b6fd4" fill-opacity="0.9"/>
<circle cx="168.9" cy="79.6" r="3.6" fill="#3b6fd4" fill-opacity="0.9"/>
<circle cx="171.8" cy="79.6" r="3.6" fill="#3b6fd4" fill-opacity="0.9"/>
<circle cx="172.8" cy="79.6" r="3.6" fill="#3b6fd4" fill-opacity="0.9"/>
<circle cx="176.7" cy="79.6" r="3.6" fill="#3b6fd4" fill-opacity="0.9"/>
<circle cx="172.5" cy="79.6" r="3.6" fill="#3b6fd4" fill-opacity="0.9"/>
<circle cx="174.7" cy="79.6" r="3.6" fill="#3b6fd4" fill-opacity="0.9"/>
<circle cx="166.4" cy="79.6" r="3.6" fill="#3b6fd4" fill-opacity="0.9"/>
<circle cx="185.8" cy="79.6" r="3.6" fill="#3b6fd4" fill-opacity="0.9"/>
<circle cx="170.7" cy="79.6" r="3.6" fill="#3b6fd4" fill-opacity="0.9"/>
<circle cx="171.1" cy="79.6" r="3.6" fill="#3b6fd4" fill-opacity="0.9"/>
<circle cx="172.8" cy="79.6" r="3.6" fill="#3b6fd4" fill-opacity="0.9"/>
<circle cx="172.5" cy="79.6" r="3.6" fill="#3b6fd4" fill-opacity="0.9"/>
<circle cx="175.3" cy="79.6" r="3.6" fill="#3b6fd4" fill-opacity="0.9"/>
<circle cx="166.0" cy="81.6" r="3.6" fill="#3b6fd4" fill-opacity="0.9"/>
<circle cx="168.4" cy="81.6" r="3.6" fill="#3b6fd4" fill-opacity="0.9"/>
<circle cx="169.4" cy="81.6" r="3.6" fill="#3b6fd4" fill-opacity="0.9"/>
<circle cx="171.6" cy="81.5" r="3.6" fill="#3b6fd4" fill-opacity="0.9"/>
<circle cx="173.4" cy="81.5" r="3.6" fill="#3b6fd4" fill-opacity="0.9"/>
<circle cx="172.2" cy="81.5" r="3.6" fill="#3b6fd4" fill-opacity="0.9"/>
<circle cx="174.1" cy="81.6" r="3.6" fill="#3b6fd4" fill-opacity="0.9"/>
<circle cx="167.0" cy="79.4" r="3.6" fill="#3b6fd4" fill-opacity="0.9"/>
<circle cx="170.0" cy="79.2" r="3.6" fill="#3b6fd4" fill-opacity="0.9"/>
<circle cx="168.3" cy="79.0" r="3.6" fill="#3b6fd4" fill-opacity="0.9"/>
<circle cx="169.2" cy="79.5" r="3.6" fill="#3b6fd4" fill-opacity="0.9"/>
<circle cx="170.4" cy="79.7" r="3.6" fill="#3b6fd4" fill-opacity="0.9"/>
<circle cx="172.0" cy="79.7" r="3.6" fill="#3b6fd4" fill-opacity="0.9"/>
<circle cx="171.2" cy="79.6" r="3.6" fill="#3b6fd4" fill-opacity="0.9"/>
<circle cx="168.1" cy="80.7" r="3.6" fill="#3b6fd4" fill-opacity="0.9"/>
<circle cx="166.2" cy="80.3" r="3.6" fill="#3b6fd4" fill-opacity="0.9"/>
<circle cx="167.0" cy="80.3" r="3.6" fill="#3b6fd4" fill-opacity="0.9"/>
<circle cx="167.5" cy="80.6" r="3.6" fill="#3b6fd4" fill-opacity="0.9"/>
<circle cx="167.5" cy="80.8" r="3.6" fill="#3b6fd4" fill-opacity="0.9"/>
<circle cx="166.8" cy="80.8" r="3.6" fill="#3b6fd4" fill-opacity="0.9"/>
<circle cx="167.7" cy="80.7" r="3.6" fill="#3b6fd4" fill-opacity="0.9"/>
<circle cx="162.7" cy="81.1" r="3.6" fill="#3b6fd4" fill-opacity="0.9"/>
<circle cx="162.8" cy="80.7" r="3.6" fill="#3b6fd4" fill-opacity="0.9"/>
<circle cx="165.9" cy="80.7" r="3.6" fill="#3b6fd4" fill-opacity="0.9"/>
<circle cx="165.8" cy="81.1" r="3.6" fill="#3b6fd4" fill-opacity="0.9"/>
<circle cx="164.9" cy="81.2" r="3.6" fill="#3b6fd4" fill-opacity="0.9"/>
<circle cx="166.8" cy="81.2" r="3.6" fill="#3b6fd4" fill-opacity="0.9"/>
<circle cx="165.2" cy="81.1" r="3.6" fill="#3b6fd4" fill-opacity="0.9"/>
<circle cx="160.5" cy="88.8" r="3.6" fill="#3b6fd4" fill-opacity="0.9"/>
<circle cx="161.9" cy="88.4" r="3.6" fill="#3b6fd4" fill-opacity="0.9"/>
<circle cx="164.3" cy="88.4" r="3.6" fill="#3b6fd4" fill-opacity="0.9"/>
<circle cx="166.0" cy="88.6" r="3.6" fill="#3b6fd4" fill-opacity="0.9"/>
<circle cx="165.3" cy="88.7" r="3.6" fill="#3b6fd4" fill-opacity="0.9"/>
<circle cx="165.6" cy="88.7" r="3.6" fill="#3b6fd4" fill-opacity="0.9"/>
<circle cx="165.3" cy="88.7" r="3.6" fill="#3b6fd4" fill-opacity="0.9"/>
<circle cx="192.9" cy="80.8" r="3.6" fill="#3b6fd4" fill-opacity="0.9"/>
<circle cx="192.3" cy="80.4" r="3.6" fill="#3b6fd4" fill-opacity="0.9"/>
<circle cx="192.1" cy="80.1" r="3.6" fill="#3b6fd4" fill-opacity="0.9"/>
<circle cx="193.5" cy="79.6" r="3.6" fill="#3b6fd4" fill-opacity="0.9"/>
<circle cx="192.8" cy="79.8" r="3.6" fill="#3b6fd4" fill-opacity="0.9"/>
<circle cx="193.2" cy="79.8" r="3.6" fill="#3b6fd4" fill-opacity="0.9"/>
<circle cx="193.2" cy="79.6" r="3.6" fill="#3b6fd4" fill-opacity="0.9"/>
<circle cx="186.3" cy="84.2" r="3.6" fill="#3b6fd4" fill-opacity="0.9"/>
<circle cx="188.8" cy="83.7" r="3.6" fill="#3b6fd4" fill-opacity="0.9"/>
<circle cx="190.5" cy="83.6" r="3.6" fill="#3b6fd4" fill-opacity="0.9"/>
<circle cx="189.6" cy="83.0" r="3.6" fill="#3b6fd4" fill-opacity="0.9"/>
<circle cx="188.1" cy="83.4" r="3.6" fill="#3b6fd4" fill-opacity="0.9"/>
<circle cx="190.2" cy="83.4" r="3.6" fill="#3b6fd4" fill-opacity="0.9"/>
<circle cx="194.5" cy="83.1" r="3.6" fill="#3b6fd4" fill-opacity="0.9"/>
<circle cx="187.4" cy="85.8" r="3.6" fill="#3b6fd4" fill-opacity="0.9"/>
<circle cx="183.5" cy="85.5" r="3.6" fill="#3b6fd4" fill-opacity="0.9"/>
<circle cx="186.0" cy="85.4" r="3.6" fill="#3b6fd4" fill-opacity="0.9"/>
<circle cx="187.7" cy="85.2" r="3.6" fill="#3b6fd4" fill-opacity="0.9"/>
<circle cx="189.2" cy="85.4" r="3.6" fill="#3b6fd4" fill-opacity="0.9"/>
<circle cx="188.2" cy="85.4" r="3.6" fill="#3b6fd4" fill-opacity="0.9"/>
<circle cx="187.1" cy="85.2" r="3.6" fill="#3b6fd4" fill-opacity="0.9"/>
<circle cx="184.0" cy="107.1" r="3.6" fill="#3b6fd4" fill-opacity="0.9"/>
<circle cx="186.6" cy="106.9" r="3.6" fill="#3b6fd4" fill-opacity="0.9"/>
<circle cx="187.2" cy="106.8" r="3.6" fill="#3b6fd4" fill-opacity="0.9"/>
<circle cx="185.8" cy="106.4" r="3.6" fill="#3b6fd4" fill-opacity="0.9"/>
<circle cx="184.7" cy="106.5" r="3.6" fill="#3b6fd4" fill-opacity="0.9"/>
<circle cx="186.2" cy="106.5" r="3.6" fill="#3b6fd4" fill-opacity="0.9"/>
<circle cx="187.2" cy="106.4" r="3.6" fill="#3b6fd4" fill-opacity="0.9"/>
<circle cx="103.8" cy="79.0" r="3.6" fill="#3b6fd4" fill-opacity="0.9"/>
<circle cx="99.5" cy="79.0" r="3.6" fill="#3b6fd4" fill-opacity="0.9"/>
<circle cx="101.0" cy="79.0" r="3.6" fill="#3b6fd4" fill-opacity="0.9"/>
<circle cx="102.6" cy="79.0" r="3.6" fill="#3b6fd4" fill-opacity="0.9"/>
<circle cx="107.1" cy="77.2" r="3.6" fill="#3b6fd4" fill-opacity="0.9"/>
<circle cx="104.4" cy="77.2" r="3.6" fill="#3b6fd4" fill-opacity="0.9"/>
<circle cx="105.4" cy="79.0" r="3.6" fill="#3b6fd4" fill-opacity="0.9"/>
<circle cx="106.3" cy="79.0" r="3.6" fill="#3b6fd4" fill-opacity="0.9"/>
<circle cx="100.4" cy="79.1" r="3.6" fill="#3b6fd4" fill-opacity="0.9"/>
<circle cx="102.7" cy="79.1" r="3.6" fill="#3b6fd4" fill-opacity="0.9"/>
<circle cx="103.8" cy="79.1" r="3.6" fill="#3b6fd4" fill-opacity="0.9"/>
<circle cx="106.9" cy="77.6" r="3.6" fill="#3b6fd4" fill-opacity="0.9"/>
<circle cx="104.4" cy="77.6" r="3.6" fill="#3b6fd4" fill-opacity="0.9"/>
<circle cx="106.7" cy="79.1" r="3.6" fill="#3b6fd4" fill-opacity="0.9"/>
<circle cx="104.7" cy="79.1" r="3.6" fill="#3b6fd4" fill-opacity="0.9"/>
<circle cx="100.9" cy="79.1" r="3.6" fill="#3b6fd4" fill-opacity="0.9"/>
<circle cx="101.9" cy="79.1" r="3.6" fill="#3b6fd4" fill-opacity="0.9"/>
<circle cx="111.1" cy="79.1" r="3.6" fill="#3b6fd4" fill-opacity="0.9"/>
<circle cx="107.0" cy="79.1" r="3.6" fill="#3b6fd4" fill-opacity="0.9"/>
<circle cx="103.7" cy="79.1" r="3.6" fill="#3b6fd4" fill-opacity="0.9"/>
<circle cx="106.4" cy="79.1" r="3.6" fill="#3b6fd4" fill-opacity="0.9"/>
<circle cx="105.0" cy="79.1" r="3.6" fill="#3b6fd4" fill-opacity="0.9"/>
<circle cx="100.0" cy="79.1" r="3.6" fill="#3b6fd4" fill-opacity="0.9"/>
<circle cx="102.3" cy="79.1" r="3.6" fill="#3b6fd4" fill-opacity="0.9"/>
<circle cx="104.8" cy="79.1" r="3.6" fill="#3b6fd4" fill-opacity="0.9"/>
<circle cx="108.1" cy="79.1" r="3.6" fill="#3b6fd4" fill-opacity="0.9"/>
<circle cx="105.3" cy="79.1" r="3.6" fill="#3b6fd4" fill-opacity="0.9"/>
<circle cx="106.6" cy="79.1" r="3.6" fill="#3b6fd4" fill-opacity="0.9"/>
<circle cx="152.7" cy="77.7" r="3.6" fill="#3b6fd4" fill-opacity="0.9"/>
<circle cx="152.1" cy="79.4" r="3.6" fill="#3b6fd4" fill-opacity="0.9"/>
<circle cx="154.7" cy="76.2" r="3.6" fill="#3b6fd4" fill-opacity="0.9"/>
<circle cx="157.1" cy="77.2" r="3.6" fill="#3b6fd4" fill-opacity="0.9"/>
<circle cx="153.5" cy="79.3" r="3.6" fill="#3b6fd4" fill-opacity="0.9"/>
<circle cx="157.6" cy="78.3" r="3.6" fill="#3b6fd4" fill-opacity="0.9"/>
<circle cx="158.9" cy="79.2" r="3.6" fill="#3b6fd4" fill-opacity="0.9"/>
<circle cx="150.2" cy="78.7" r="3.6" fill="#3b6fd4" fill-opacity="0.9"/>
<circle cx="146.2" cy="79.8" r="3.6" fill="#3b6fd4" fill-opacity="0.9"/>
<circle cx="151.2" cy="76.9" r="3.6" fill="#3b6fd4" fill-opacity="0.9"/>
<circle cx="152.0" cy="77.8" r="3.6" fill="#3b6fd4" fill-opacity="0.9"/>
<circle cx="150.6" cy="79.7" r="3.6" fill="#3b6fd4" fill-opacity="0.9"/>
<circle cx="152.2" cy="79.4" r="3.6" fill="#3b6fd4" fill-opacity="0.9"/>
<circle cx="153.1" cy="79.7" r="3.6" fill="#3b6fd4" fill-opacity="0.9"/>
<circle cx="148.6" cy="79.2" r="3.6" fill="#3b6fd4" fill-opacity="0.9"/>
<circle cx="150.0" cy="79.8" r="3.6" fill="#3b6fd4" fill-opacity="0.9"/>
<circle cx="151.3" cy="78.9" r="3.6" fill="#3b6fd4" fill-opacity="0.9"/>
<circle cx="149.0" cy="79.6" r="3.6" fill="#3b6fd4" fill-opacity="0.9"/>
<circle cx="148.6" cy="79.8" r="3.6" fill="#3b6fd4" fill-opacity="0.9"/>
<circle cx="150.4" cy="79.8" r="3.6" fill="#3b6fd4" fill-opacity="0.9"/>
<circle cx="152.3" cy="79.8" r="3.6" fill="#3b6fd4" fill-opacity="0.9"/>
<circle cx="146.5" cy="81.7" r="3.6" fill="#3b6fd4" fill-opacity="0.9"/>
<circle cx="146.0" cy="82.3" r="3.6" fill="#3b6fd4" fill-opacity="0.9"/>
<circle cx="151.6" cy="82.3" r="3.6" fill="#3b6fd4" fill-opacity="0.9"/>
<circle cx="149.9" cy="82.3" r="3.6" fill="#3b6fd4" fill-opacity="0.9"/>
<circle cx="152.4" cy="82.3" r="3.6" fill="#3b6fd4" fill-opacity="0.9"/>
<circle cx="152.5" cy="82.3" r="3.6" fill="#3b6fd4" fill-opacity="0.9"/>
<circle cx="152.9" cy="82.3" r="3.6" fill="#3b6fd4" fill-opacity="0.9"/>
<circle cx="179.4" cy="79.8" r="3.6" fill="#3b6fd4" fill-opacity="0.9"/>
<circle cx="181.4" cy="79.7" r="3.6" fill="#3b6fd4" fill-opacity="0.9"/>
<circle cx="184.6" cy="79.7" r="3.6" fill="#3b6fd4" fill-opacity="0.9"/>
<circle cx="183.9" cy="79.7" r="3.6" fill="#3b6fd4" fill-opacity="0.9"/>
<circle cx="185.8" cy="79.7" r="3.6" fill="#3b6fd4" fill-opacity="0.9"/>
<circle cx="183.0" cy="79.7" r="3.6" fill="#3b6fd4" fill-opacity="0.9"/>
<circle cx="185.3" cy="79.7" r="3.6" fill="#3b6fd4" fill-opacity="0.9"/>
<circle cx="169.4" cy="80.2" r="3.6" fill="#3b6fd4" fill-opacity="0.9"/>
<circle cx="172.3" cy="80.2" r="3.6" fill="#3b6fd4" fill-opacity="0.9"/>
<circle cx="175.4" cy="80.2" r="3.6" fill="#3b6fd4" fill-opacity="0.9"/>
<circle cx="176.7" cy="80.2" r="3.6" fill="#3b6fd4" fill-opacity="0.9"/>
<circle cx="179.3" cy="80.2" r="3.6" fill="#3b6fd4" fill-opacity="0.9"/>
<circle cx="180.9" cy="80.2" r="3.6" fill="#3b6fd4" fill-opacity="0.9"/>
<circle cx="180.2" cy="80.2" r="3.6" fill="#3b6fd4" fill-opacity="0.9"/>
<circle cx="168.0" cy="80.3" r="3.6" fill="#3b6fd4" fill-opacity="0.9"/>
<circle cx="169.9" cy="80.3" r="3.6" fill="#3b6fd4" fill-opacity="0.9"/>
<circle cx="172.5" cy="80.3" r="3.6" fill="#3b6fd4" fill-opacity="0.9"/>
<circle cx="175.2" cy="80.3" r="3.6" fill="#3b6fd4" fill-opacity="0.9"/>
<circle cx="177.1" cy="80.3" r="3.6" fill="#3b6fd4" fill-opacity="0.9"/>
<circle cx="177.3" cy="80.3" r="3.6" fill="#3b6fd4" fill-opacity="0.9"/>
<circle cx="180.9" cy="80.3" r="3.6" fill="#3b6fd4" fill-opacity="0.9"/>
<circle cx="170.1" cy="84.2" r="3.6" fill="#3b6fd4" fill-opacity="0.9"/>
<circle cx="170.8" cy="84.1" r="3.6" fill="#3b6fd4" fill-opacity="0.9"/>
<circle cx="173.3" cy="84.2" r="3.6" fill="#3b6fd4" fill-opacity="0.9"/>
<circle cx="175.7" cy="84.1" r="3.6" fill="#3b6fd4" fill-opacity="0.9"/>
<circle cx="176.3" cy="84.1" r="3.6" fill="#3b6fd4" fill-opacity="0.9"/>
<circle cx="176.0" cy="84.1" r="3.6" fill="#3b6fd4" fill-opacity="0.9"/>
<circle cx="178.0" cy="84.1" r="3.6" fill="#3b6fd4" fill-opacity="0.9"/>
<circle cx="562" cy="48" r="4" fill="#3b6fd4"/>
<text class="leg" x="572" y="52">best fixed h (hindsight)</text>
<circle cx="294.8" cy="80.2" r="3.6" fill="#d4693b" fill-opacity="0.9"/>
<circle cx="489.1" cy="82.3" r="3.6" fill="#d4693b" fill-opacity="0.9"/>
<circle cx="293.4" cy="81.6" r="3.6" fill="#d4693b" fill-opacity="0.9"/>
<circle cx="485.6" cy="87.4" r="3.6" fill="#d4693b" fill-opacity="0.9"/>
<circle cx="290.2" cy="82.4" r="3.6" fill="#d4693b" fill-opacity="0.9"/>
<circle cx="486.5" cy="91.9" r="3.6" fill="#d4693b" fill-opacity="0.9"/>
<circle cx="290.3" cy="92.6" r="3.6" fill="#d4693b" fill-opacity="0.9"/>
<circle cx="490.0" cy="130.9" r="3.6" fill="#d4693b" fill-opacity="0.9"/>
<circle cx="280.2" cy="81.0" r="3.6" fill="#d4693b" fill-opacity="0.9"/>
<circle cx="502.0" cy="83.0" r="3.6" fill="#d4693b" fill-opacity="0.9"/>
<circle cx="285.0" cy="86.0" r="3.6" fill="#d4693b" fill-opacity="0.9"/>
<circle cx="507.5" cy="96.2" r="3.6" fill="#d4693b" fill-opacity="0.9"/>
<circle cx="277.6" cy="90.4" r="3.6" fill="#d4693b" fill-opacity="0.9"/>
<circle cx="492.4" cy="114.8" r="3.6" fill="#d4693b" fill-opacity="0.9"/>
<circle cx="276.9" cy="127.3" r="3.6" fill="#d4693b" fill-opacity="0.9"/>
<circle cx="495.1" cy="225.3" r="3.6" fill="#d4693b" fill-opacity="0.9"/>
<circle cx="309.8" cy="81.2" r="3.6" fill="#d4693b" fill-opacity="0.9"/>
<circle cx="513.1" cy="81.9" r="3.6" fill="#d4693b" fill-opacity="0.9"/>
<circle cx="307.2" cy="93.7" r="3.6" fill="#d4693b" fill-opacity="0.9"/>
<circle cx="511.6" cy="102.7" r="3.6" fill="#d4693b" fill-opacity="0.9"/>
<circle cx="306.6" cy="109.0" r="3.6" fill="#d4693b" fill-opacity="0.9"/>
<circle cx="513.0" cy="151.1" r="3.6" fill="#d4693b" fill-opacity="0.9"/>
<circle cx="304.9" cy="203.9" r="3.6" fill="#d4693b" fill-opacity="0.9"/>
<circle cx="509.3" cy="374.2" r="3.6" fill="#d4693b" fill-opacity="0.9"/>
<circle cx="207.9" cy="79.1" r="3.6" fill="#d4693b" fill-opacity="0.9"/>
<circle cx="436.3" cy="76.3" r="3.6" fill="#d4693b" fill-opacity="0.9"/>
<circle cx="207.9" cy="79.1" r="3.6" fill="#d4693b" fill-opacity="0.9"/>
<circle cx="437.0" cy="78.0" r="3.6" fill="#d4693b" fill-opacity="0.9"/>
<circle cx="207.2" cy="79.1" r="3.6" fill="#d4693b" fill-opacity="0.9"/>
<circle cx="434.7" cy="79.6" r="3.6" fill="#d4693b" fill-opacity="0.9"/>
<circle cx="208.3" cy="79.5" r="3.6" fill="#d4693b" fill-opacity="0.9"/>
<circle cx="434.8" cy="81.4" r="3.6" fill="#d4693b" fill-opacity="0.9"/>
<circle cx="278.3" cy="76.1" r="3.6" fill="#d4693b" fill-opacity="0.9"/>
<circle cx="481.3" cy="77.5" r="3.6" fill="#d4693b" fill-opacity="0.9"/>
<circle cx="287.5" cy="79.3" r="3.6" fill="#d4693b" fill-opacity="0.9"/>
<circle cx="481.3" cy="83.9" r="3.6" fill="#d4693b" fill-opacity="0.9"/>
<circle cx="276.5" cy="81.4" r="3.6" fill="#d4693b" fill-opacity="0.9"/>
<circle cx="484.1" cy="92.0" r="3.6" fill="#d4693b" fill-opacity="0.9"/>
<circle cx="280.0" cy="95.5" r="3.6" fill="#d4693b" fill-opacity="0.9"/>
<circle cx="478.7" cy="138.3" r="3.6" fill="#d4693b" fill-opacity="0.9"/>
<circle cx="305.9" cy="81.7" r="3.6" fill="#d4693b" fill-opacity="0.9"/>
<circle cx="524.5" cy="84.4" r="3.6" fill="#d4693b" fill-opacity="0.9"/>
<circle cx="298.4" cy="84.7" r="3.6" fill="#d4693b" fill-opacity="0.9"/>
<circle cx="503.7" cy="95.2" r="3.6" fill="#d4693b" fill-opacity="0.9"/>
<circle cx="304.2" cy="86.1" r="3.6" fill="#d4693b" fill-opacity="0.9"/>
<circle cx="503.4" cy="106.7" r="3.6" fill="#d4693b" fill-opacity="0.9"/>
<circle cx="295.2" cy="107.3" r="3.6" fill="#d4693b" fill-opacity="0.9"/>
<circle cx="501.8" cy="189.8" r="3.6" fill="#d4693b" fill-opacity="0.9"/>
<circle cx="562" cy="63" r="4" fill="#d4693b"/>
<text class="leg" x="572" y="67">best-ev (horizon as action)</text>
<circle cx="254.0" cy="79.3" r="3.6" fill="#3ba36b" fill-opacity="0.9"/>
<circle cx="372.9" cy="79.3" r="3.6" fill="#3ba36b" fill-opacity="0.9"/>
<circle cx="250.1" cy="79.6" r="3.6" fill="#3ba36b" fill-opacity="0.9"/>
<circle cx="367.4" cy="79.6" r="3.6" fill="#3ba36b" fill-opacity="0.9"/>
<circle cx="244.1" cy="79.6" r="3.6" fill="#3ba36b" fill-opacity="0.9"/>
<circle cx="368.4" cy="79.6" r="3.6" fill="#3ba36b" fill-opacity="0.9"/>
<circle cx="246.6" cy="81.5" r="3.6" fill="#3ba36b" fill-opacity="0.9"/>
<circle cx="365.3" cy="81.5" r="3.6" fill="#3ba36b" fill-opacity="0.9"/>
<circle cx="245.2" cy="79.5" r="3.6" fill="#3ba36b" fill-opacity="0.9"/>
<circle cx="385.6" cy="79.7" r="3.6" fill="#3ba36b" fill-opacity="0.9"/>
<circle cx="245.3" cy="80.7" r="3.6" fill="#3ba36b" fill-opacity="0.9"/>
<circle cx="388.0" cy="80.9" r="3.6" fill="#3ba36b" fill-opacity="0.9"/>
<circle cx="241.2" cy="81.2" r="3.6" fill="#3ba36b" fill-opacity="0.9"/>
<circle cx="379.7" cy="81.3" r="3.6" fill="#3ba36b" fill-opacity="0.9"/>
<circle cx="241.5" cy="88.5" r="3.6" fill="#3ba36b" fill-opacity="0.9"/>
<circle cx="373.1" cy="88.7" r="3.6" fill="#3ba36b" fill-opacity="0.9"/>
<circle cx="292.1" cy="80.2" r="3.6" fill="#3ba36b" fill-opacity="0.9"/>
<circle cx="460.1" cy="80.0" r="3.6" fill="#3ba36b" fill-opacity="0.9"/>
<circle cx="281.5" cy="83.5" r="3.6" fill="#3ba36b" fill-opacity="0.9"/>
<circle cx="437.5" cy="83.3" r="3.6" fill="#3ba36b" fill-opacity="0.9"/>
<circle cx="278.2" cy="85.2" r="3.6" fill="#3ba36b" fill-opacity="0.9"/>
<circle cx="427.7" cy="85.0" r="3.6" fill="#3ba36b" fill-opacity="0.9"/>
<circle cx="274.6" cy="104.4" r="3.6" fill="#3ba36b" fill-opacity="0.9"/>
<circle cx="428.4" cy="103.7" r="3.6" fill="#3ba36b" fill-opacity="0.9"/>
<circle cx="182.7" cy="79.0" r="3.6" fill="#3ba36b" fill-opacity="0.9"/>
<circle cx="315.9" cy="79.0" r="3.6" fill="#3ba36b" fill-opacity="0.9"/>
<circle cx="174.5" cy="79.1" r="3.6" fill="#3ba36b" fill-opacity="0.9"/>
<circle cx="318.6" cy="79.1" r="3.6" fill="#3ba36b" fill-opacity="0.9"/>
<circle cx="173.5" cy="79.1" r="3.6" fill="#3ba36b" fill-opacity="0.9"/>
<circle cx="318.1" cy="79.1" r="3.6" fill="#3ba36b" fill-opacity="0.9"/>
<circle cx="173.0" cy="79.1" r="3.6" fill="#3ba36b" fill-opacity="0.9"/>
<circle cx="315.5" cy="79.1" r="3.6" fill="#3ba36b" fill-opacity="0.9"/>
<circle cx="238.1" cy="79.0" r="3.6" fill="#3ba36b" fill-opacity="0.9"/>
<circle cx="364.5" cy="79.4" r="3.6" fill="#3ba36b" fill-opacity="0.9"/>
<circle cx="241.3" cy="79.4" r="3.6" fill="#3ba36b" fill-opacity="0.9"/>
<circle cx="363.5" cy="79.7" r="3.6" fill="#3ba36b" fill-opacity="0.9"/>
<circle cx="232.3" cy="79.8" r="3.6" fill="#3ba36b" fill-opacity="0.9"/>
<circle cx="357.7" cy="79.8" r="3.6" fill="#3ba36b" fill-opacity="0.9"/>
<circle cx="233.6" cy="82.1" r="3.6" fill="#3ba36b" fill-opacity="0.9"/>
<circle cx="360.9" cy="82.2" r="3.6" fill="#3ba36b" fill-opacity="0.9"/>
<circle cx="268.6" cy="79.7" r="3.6" fill="#3ba36b" fill-opacity="0.9"/>
<circle cx="401.5" cy="79.7" r="3.6" fill="#3ba36b" fill-opacity="0.9"/>
<circle cx="256.2" cy="80.2" r="3.6" fill="#3ba36b" fill-opacity="0.9"/>
<circle cx="382.5" cy="80.2" r="3.6" fill="#3ba36b" fill-opacity="0.9"/>
<circle cx="258.7" cy="80.3" r="3.6" fill="#3ba36b" fill-opacity="0.9"/>
<circle cx="374.8" cy="80.3" r="3.6" fill="#3ba36b" fill-opacity="0.9"/>
<circle cx="252.1" cy="84.0" r="3.6" fill="#3ba36b" fill-opacity="0.9"/>
<circle cx="377.2" cy="84.1" r="3.6" fill="#3ba36b" fill-opacity="0.9"/>
<circle cx="562" cy="78" r="4" fill="#3ba36b"/>
<text class="leg" x="572" y="82">cond-random (gating only)</text>
<circle cx="258.2" cy="79.3" r="3.6" fill="#a03bd4" fill-opacity="0.9"/>
<circle cx="395.1" cy="79.2" r="3.6" fill="#a03bd4" fill-opacity="0.9"/>
<circle cx="257.4" cy="79.5" r="3.6" fill="#a03bd4" fill-opacity="0.9"/>
<circle cx="388.6" cy="79.5" r="3.6" fill="#a03bd4" fill-opacity="0.9"/>
<circle cx="252.0" cy="79.6" r="3.6" fill="#a03bd4" fill-opacity="0.9"/>
<circle cx="386.7" cy="79.6" r="3.6" fill="#a03bd4" fill-opacity="0.9"/>
<circle cx="253.0" cy="81.5" r="3.6" fill="#a03bd4" fill-opacity="0.9"/>
<circle cx="384.3" cy="81.5" r="3.6" fill="#a03bd4" fill-opacity="0.9"/>
<circle cx="255.8" cy="79.0" r="3.6" fill="#a03bd4" fill-opacity="0.9"/>
<circle cx="404.8" cy="79.0" r="3.6" fill="#a03bd4" fill-opacity="0.9"/>
<circle cx="251.3" cy="80.2" r="3.6" fill="#a03bd4" fill-opacity="0.9"/>
<circle cx="400.4" cy="80.1" r="3.6" fill="#a03bd4" fill-opacity="0.9"/>
<circle cx="248.1" cy="80.8" r="3.6" fill="#a03bd4" fill-opacity="0.9"/>
<circle cx="385.8" cy="80.8" r="3.6" fill="#a03bd4" fill-opacity="0.9"/>
<circle cx="245.4" cy="88.0" r="3.6" fill="#a03bd4" fill-opacity="0.9"/>
<circle cx="386.2" cy="88.0" r="3.6" fill="#a03bd4" fill-opacity="0.9"/>
<circle cx="300.5" cy="78.9" r="3.6" fill="#a03bd4" fill-opacity="0.9"/>
<circle cx="473.2" cy="79.0" r="3.6" fill="#a03bd4" fill-opacity="0.9"/>
<circle cx="287.2" cy="82.8" r="3.6" fill="#a03bd4" fill-opacity="0.9"/>
<circle cx="451.0" cy="82.9" r="3.6" fill="#a03bd4" fill-opacity="0.9"/>
<circle cx="285.2" cy="84.9" r="3.6" fill="#a03bd4" fill-opacity="0.9"/>
<circle cx="440.2" cy="84.9" r="3.6" fill="#a03bd4" fill-opacity="0.9"/>
<circle cx="280.4" cy="103.5" r="3.6" fill="#a03bd4" fill-opacity="0.9"/>
<circle cx="437.1" cy="103.4" r="3.6" fill="#a03bd4" fill-opacity="0.9"/>
<circle cx="185.9" cy="79.0" r="3.6" fill="#a03bd4" fill-opacity="0.9"/>
<circle cx="337.6" cy="77.2" r="3.6" fill="#a03bd4" fill-opacity="0.9"/>
<circle cx="180.5" cy="79.1" r="3.6" fill="#a03bd4" fill-opacity="0.9"/>
<circle cx="336.3" cy="79.1" r="3.6" fill="#a03bd4" fill-opacity="0.9"/>
<circle cx="181.7" cy="79.1" r="3.6" fill="#a03bd4" fill-opacity="0.9"/>
<circle cx="336.6" cy="79.1" r="3.6" fill="#a03bd4" fill-opacity="0.9"/>
<circle cx="181.1" cy="79.1" r="3.6" fill="#a03bd4" fill-opacity="0.9"/>
<circle cx="337.4" cy="79.1" r="3.6" fill="#a03bd4" fill-opacity="0.9"/>
<circle cx="246.3" cy="76.1" r="3.6" fill="#a03bd4" fill-opacity="0.9"/>
<circle cx="385.4" cy="75.8" r="3.6" fill="#a03bd4" fill-opacity="0.9"/>
<circle cx="251.3" cy="77.3" r="3.6" fill="#a03bd4" fill-opacity="0.9"/>
<circle cx="385.3" cy="77.5" r="3.6" fill="#a03bd4" fill-opacity="0.9"/>
<circle cx="237.9" cy="79.1" r="3.6" fill="#a03bd4" fill-opacity="0.9"/>
<circle cx="378.5" cy="79.1" r="3.6" fill="#a03bd4" fill-opacity="0.9"/>
<circle cx="240.4" cy="81.6" r="3.6" fill="#a03bd4" fill-opacity="0.9"/>
<circle cx="379.9" cy="81.6" r="3.6" fill="#a03bd4" fill-opacity="0.9"/>
<circle cx="271.6" cy="79.7" r="3.6" fill="#a03bd4" fill-opacity="0.9"/>
<circle cx="418.7" cy="79.7" r="3.6" fill="#a03bd4" fill-opacity="0.9"/>
<circle cx="261.9" cy="80.2" r="3.6" fill="#a03bd4" fill-opacity="0.9"/>
<circle cx="398.9" cy="80.2" r="3.6" fill="#a03bd4" fill-opacity="0.9"/>
<circle cx="258.4" cy="80.3" r="3.6" fill="#a03bd4" fill-opacity="0.9"/>
<circle cx="401.6" cy="80.3" r="3.6" fill="#a03bd4" fill-opacity="0.9"/>
<circle cx="260.3" cy="84.0" r="3.6" fill="#a03bd4" fill-opacity="0.9"/>
<circle cx="395.7" cy="84.0" r="3.6" fill="#a03bd4" fill-opacity="0.9"/>
<circle cx="562" cy="93" r="4" fill="#a03bd4"/>
<text class="leg" x="572" y="97">conditional (whether, then when)</text>
<circle cx="230.8" cy="79.0" r="3.6" fill="#c9a227" fill-opacity="0.9"/>
<circle cx="319.1" cy="79.3" r="3.6" fill="#c9a227" fill-opacity="0.9"/>
<circle cx="229.8" cy="79.7" r="3.6" fill="#c9a227" fill-opacity="0.9"/>
<circle cx="317.8" cy="79.7" r="3.6" fill="#c9a227" fill-opacity="0.9"/>
<circle cx="227.6" cy="79.9" r="3.6" fill="#c9a227" fill-opacity="0.9"/>
<circle cx="318.1" cy="79.9" r="3.6" fill="#c9a227" fill-opacity="0.9"/>
<circle cx="229.0" cy="82.5" r="3.6" fill="#c9a227" fill-opacity="0.9"/>
<circle cx="318.3" cy="82.4" r="3.6" fill="#c9a227" fill-opacity="0.9"/>
<circle cx="219.3" cy="79.8" r="3.6" fill="#c9a227" fill-opacity="0.9"/>
<circle cx="306.1" cy="79.6" r="3.6" fill="#c9a227" fill-opacity="0.9"/>
<circle cx="223.9" cy="82.0" r="3.6" fill="#c9a227" fill-opacity="0.9"/>
<circle cx="309.6" cy="81.4" r="3.6" fill="#c9a227" fill-opacity="0.9"/>
<circle cx="217.6" cy="83.7" r="3.6" fill="#c9a227" fill-opacity="0.9"/>
<circle cx="310.2" cy="83.1" r="3.6" fill="#c9a227" fill-opacity="0.9"/>
<circle cx="219.2" cy="99.3" r="3.6" fill="#c9a227" fill-opacity="0.9"/>
<circle cx="307.2" cy="96.8" r="3.6" fill="#c9a227" fill-opacity="0.9"/>
<circle cx="244.7" cy="81.0" r="3.6" fill="#c9a227" fill-opacity="0.9"/>
<circle cx="332.0" cy="80.0" r="3.6" fill="#c9a227" fill-opacity="0.9"/>
<circle cx="243.2" cy="89.1" r="3.6" fill="#c9a227" fill-opacity="0.9"/>
<circle cx="328.1" cy="86.5" r="3.6" fill="#c9a227" fill-opacity="0.9"/>
<circle cx="240.1" cy="96.4" r="3.6" fill="#c9a227" fill-opacity="0.9"/>
<circle cx="327.6" cy="93.6" r="3.6" fill="#c9a227" fill-opacity="0.9"/>
<circle cx="242.7" cy="151.5" r="3.6" fill="#c9a227" fill-opacity="0.9"/>
<circle cx="333.2" cy="140.6" r="3.6" fill="#c9a227" fill-opacity="0.9"/>
<circle cx="163.5" cy="79.0" r="3.6" fill="#c9a227" fill-opacity="0.9"/>
<circle cx="275.8" cy="77.2" r="3.6" fill="#c9a227" fill-opacity="0.9"/>
<circle cx="163.8" cy="79.1" r="3.6" fill="#c9a227" fill-opacity="0.9"/>
<circle cx="278.0" cy="77.6" r="3.6" fill="#c9a227" fill-opacity="0.9"/>
<circle cx="161.6" cy="79.1" r="3.6" fill="#c9a227" fill-opacity="0.9"/>
<circle cx="275.9" cy="79.1" r="3.6" fill="#c9a227" fill-opacity="0.9"/>
<circle cx="163.1" cy="79.1" r="3.6" fill="#c9a227" fill-opacity="0.9"/>
<circle cx="275.8" cy="79.1" r="3.6" fill="#c9a227" fill-opacity="0.9"/>
<circle cx="215.4" cy="77.8" r="3.6" fill="#c9a227" fill-opacity="0.9"/>
<circle cx="308.4" cy="77.4" r="3.6" fill="#c9a227" fill-opacity="0.9"/>
<circle cx="216.7" cy="79.4" r="3.6" fill="#c9a227" fill-opacity="0.9"/>
<circle cx="311.6" cy="78.1" r="3.6" fill="#c9a227" fill-opacity="0.9"/>
<circle cx="212.1" cy="80.4" r="3.6" fill="#c9a227" fill-opacity="0.9"/>
<circle cx="309.0" cy="79.1" r="3.6" fill="#c9a227" fill-opacity="0.9"/>
<circle cx="214.1" cy="84.6" r="3.6" fill="#c9a227" fill-opacity="0.9"/>
<circle cx="309.5" cy="84.3" r="3.6" fill="#c9a227" fill-opacity="0.9"/>
<circle cx="239.8" cy="79.8" r="3.6" fill="#c9a227" fill-opacity="0.9"/>
<circle cx="321.9" cy="79.8" r="3.6" fill="#c9a227" fill-opacity="0.9"/>
<circle cx="234.0" cy="80.5" r="3.6" fill="#c9a227" fill-opacity="0.9"/>
<circle cx="317.0" cy="80.4" r="3.6" fill="#c9a227" fill-opacity="0.9"/>
<circle cx="236.1" cy="80.7" r="3.6" fill="#c9a227" fill-opacity="0.9"/>
<circle cx="318.7" cy="80.7" r="3.6" fill="#c9a227" fill-opacity="0.9"/>
<circle cx="232.5" cy="86.0" r="3.6" fill="#c9a227" fill-opacity="0.9"/>
<circle cx="316.7" cy="85.9" r="3.6" fill="#c9a227" fill-opacity="0.9"/>
<circle cx="562" cy="108" r="4" fill="#c9a227"/>
<text class="leg" x="572" y="112">pooled (timing-blind)</text>
</svg>